<svg width="295" height="259" viewBox="0 0 295 259" fill="none" xmlns="http://www.w3.org/2000/svg">
<g clip-path="url(#clip0)">
<rect width="295" height="259" fill="#A2E2E7"/>
<path d="M287.9 183.059C300.588 165.249 290.037 143.738 290.037 143.738C290.037 143.738 273.705 152.775 264.218 166.93C252.713 184.101 218.862 183.252 178.235 146.745C178.235 146.745 100.006 76.4514 84.1313 62.1873C68.2602 47.9261 37.6748 117.995 94.7374 173.534C99.1322 177.812 103.582 181.582 108.061 184.947C108.76 199.307 112.308 218.108 123.047 239.062C127.392 246.695 165.313 221.756 151.507 168.39L153.403 168.429C160.6 183.337 163.011 196.606 162.629 207.834C196.056 212.701 224.532 202.865 235.242 201.029C252.903 197.998 262.165 203.847 275.669 213.302C292.987 225.425 308.748 218.973 308.748 218.973C308.748 218.973 301.612 193.66 287.9 183.059Z" fill="#4B4B4B"/>
<path d="M306.59 176.647C311.082 193.013 311.85 208.48 309.67 220.163C307.422 232.22 302.469 238.534 297.125 240C291.782 241.467 284.3 238.565 276.213 229.345C268.376 220.41 261.142 206.718 256.65 190.351C252.159 173.985 251.391 158.517 253.57 146.834C255.819 134.778 260.772 128.464 266.115 126.997C271.458 125.531 278.94 128.433 287.028 137.653C294.865 146.587 302.099 160.28 306.59 176.647Z" stroke="#4B4B4B" stroke-width="10"/>
<path d="M200.259 179.085C188.543 205.951 171.828 227.343 154.519 240.291C137.075 253.339 119.988 257.208 106.696 251.412C93.4034 245.616 84.6114 230.462 82.3036 208.8C80.0136 187.306 84.3153 160.501 96.031 133.634C107.747 106.767 124.462 85.3759 141.771 72.4278C159.215 59.3795 176.302 55.5106 189.594 61.3069C202.886 67.1032 211.678 82.2571 213.986 103.918C216.276 125.413 211.975 152.218 200.259 179.085Z" stroke="#4B4B4B" stroke-width="10"/>
<path d="M55.2382 69.2416C46.8898 88.3864 35.0046 103.563 22.7816 112.707C10.4246 121.95 -1.31947 124.424 -10.2174 120.544C-19.1154 116.663 -25.294 106.374 -26.9289 91.0295C-28.546 75.851 -25.5118 56.8145 -17.1634 37.6697C-8.81499 18.5249 3.07021 3.34799 15.2932 -5.79527C27.6502 -15.0388 39.3943 -17.5124 48.2922 -13.6323C57.1902 -9.75214 63.3688 0.53695 65.0037 15.8818C66.6208 31.0603 63.5866 50.0969 55.2382 69.2416Z" stroke="#4B4B4B" stroke-width="10"/>
<circle cx="40" cy="215" r="8" fill="#E9F7F9"/>
<circle cx="50" cy="175" r="8" fill="#E9F7F9"/>
<circle cx="20" cy="135" r="8" fill="#E9F7F9"/>
<circle cx="30" cy="65" r="8" fill="#E9F7F9"/>
<circle cx="230" cy="235" r="8" fill="#E9F7F9"/>
<circle cx="180" cy="115" r="8" fill="#E9F7F9"/>
</g>
<defs>
<clipPath id="clip0">
<rect width="295" height="259" fill="white"/>
</clipPath>
</defs>
</svg>
