<svg width="295" height="259" viewBox="0 0 295 259" fill="none" xmlns="http://www.w3.org/2000/svg">
<g clip-path="url(#clip0)">
<rect width="295" height="259" fill="#FFF6DD"/>
<rect width="295" height="259" fill="#FFF6DD"/>
<path d="M315.833 157.531C304.569 149.859 284.765 164.312 277.447 177.775L291.434 193.154C291.434 193.154 302.825 187.799 312.235 180.322C317.369 176.243 326.208 164.597 315.833 157.531Z" fill="#D8CCAC"/>
<path d="M273.599 181.737C273.599 181.737 257.493 193.439 267.242 203.416C275.88 212.257 288.063 196.71 288.063 196.71L273.599 181.737Z" fill="#D8CCAC"/>
<path d="M297.635 225.113C293.285 213.337 279.849 219.1 274.65 223.096C265.119 230.42 257.171 240.179 257.171 240.179L268.714 257.467C283.546 253.621 302.356 237.897 297.635 225.113Z" fill="#D8CCAC"/>
<path d="M252.906 242.59C252.906 242.59 234.875 250.655 241.366 261.173C248.691 273.045 263.939 260.244 263.939 260.244L252.906 242.59Z" fill="#D8CCAC"/>
<path fill-rule="evenodd" clip-rule="evenodd" d="M59.6206 0C62.8848 3.23222 65.8575 7.06313 68.5 11.5564C95.5744 57.5927 118.831 143.483 78.5106 194.511C51.3127 228.932 18.4862 226.665 0 221.544V0H59.6206Z" fill="#FCEEC8"/>
<path d="M111.375 140.562C112.042 140.687 112.667 141.125 113.25 141.875C113.875 142.625 114.083 143.479 113.875 144.437C113.625 145.604 113.021 146.542 112.062 147.25C111.146 148 110.104 148.5 108.938 148.75C108.312 148.833 107.729 148.687 107.188 148.312C106.646 147.937 106.229 147.458 105.938 146.875C105.646 146.25 105.5 145.583 105.5 144.875C105.5 144.167 105.708 143.5 106.125 142.875C106.333 142.583 106.625 142.354 107 142.187C107.333 142.021 107.667 141.812 108 141.562C108.25 141.354 108.542 141.125 108.875 140.875C109.208 140.583 109.583 140.417 110 140.375C110.208 140.375 110.438 140.396 110.688 140.437C110.938 140.479 111.167 140.521 111.375 140.562Z" fill="#AB9C79"/>
<path d="M158.838 143.437C156.963 145.229 154.692 146.604 152.025 147.562C149.358 148.521 146.233 148.833 142.65 148.5C141.525 148.333 140.504 147.937 139.588 147.312C138.713 146.729 137.921 146.146 137.212 145.562C137.004 145.396 136.817 145.271 136.65 145.187C136.483 145.062 136.337 144.937 136.212 144.812C136.046 144.604 135.9 144.396 135.775 144.187C135.692 143.937 135.546 143.708 135.337 143.5C135.004 143.125 134.65 142.812 134.275 142.562C133.9 142.312 133.608 142.042 133.4 141.75C133.15 141.417 133.004 141.042 132.962 140.625C132.921 140.208 132.712 139.833 132.337 139.5C132.296 138.583 132.192 137.708 132.025 136.875C131.858 136.042 131.671 135.208 131.462 134.375C131.254 133.542 131.067 132.708 130.9 131.875C130.733 131 130.65 130.083 130.65 129.125C130.65 128.625 130.733 128.104 130.9 127.562C131.067 126.979 131.108 126.437 131.025 125.937C130.983 125.562 130.858 125.229 130.65 124.937C130.442 124.646 130.337 124.271 130.337 123.812C130.379 123.104 130.629 122.396 131.087 121.687C131.587 120.937 131.942 120.229 132.15 119.562C132.275 119.021 132.275 118.5 132.15 118C132.067 117.458 132.108 116.917 132.275 116.375C132.358 116.083 132.546 115.771 132.837 115.437C133.129 115.104 133.379 114.771 133.587 114.437C134.171 113.437 134.775 112.458 135.4 111.5C136.025 110.5 136.692 109.625 137.4 108.875C137.942 108.292 138.463 107.75 138.963 107.25C139.463 106.75 140.067 106.271 140.775 105.812C141.442 105.312 142.088 104.812 142.713 104.312C143.338 103.812 143.983 103.333 144.65 102.875C145.317 102.375 146.025 101.937 146.775 101.562C147.525 101.187 148.338 100.875 149.213 100.625C150.546 100.208 151.838 99.9375 153.088 99.8125C154.338 99.6458 155.629 99.6667 156.963 99.875C157.546 99.9583 158.296 100.146 159.213 100.437C160.171 100.729 160.921 101 161.463 101.25C162.254 101.625 162.9 102.167 163.4 102.875C163.9 103.542 164.4 104.229 164.9 104.937C165.108 105.271 165.358 105.562 165.65 105.812C165.983 106.062 166.213 106.292 166.338 106.5C166.629 107.083 166.858 107.771 167.025 108.562C167.192 109.312 167.4 110.062 167.65 110.812C167.817 111.479 168.046 112.146 168.338 112.812C168.629 113.437 168.9 114.104 169.15 114.812C169.4 115.479 169.608 116.208 169.775 117C169.942 117.75 169.983 118.583 169.9 119.5C169.817 120.583 169.671 121.833 169.463 123.25C169.254 124.667 169.004 125.937 168.713 127.062C168.588 127.604 168.4 128.208 168.15 128.875C167.942 129.5 167.713 130 167.463 130.375C167.171 130.708 166.858 130.917 166.525 131C166.233 131.083 165.983 131.292 165.775 131.625C165.65 131.833 165.546 132.104 165.463 132.437C165.421 132.771 165.4 133.042 165.4 133.25C165.358 133.583 165.358 133.896 165.4 134.187C165.483 134.437 165.504 134.729 165.463 135.062C165.463 135.437 165.317 135.833 165.025 136.25C164.775 136.625 164.483 137 164.15 137.375C163.817 137.75 163.442 138.104 163.025 138.437C162.65 138.771 162.338 139.083 162.088 139.375C161.463 140.083 160.9 140.771 160.4 141.437C159.942 142.062 159.421 142.729 158.838 143.437ZM158.4 121.312C158.567 120.812 158.588 120.271 158.463 119.687C158.338 119.062 158.317 118.437 158.4 117.812C158.483 117.146 158.546 116.562 158.588 116.062C158.629 115.521 158.65 114.937 158.65 114.312C158.567 112.562 158.296 111.042 157.838 109.75C157.421 108.458 156.733 107.458 155.775 106.75C155.275 106.792 154.796 106.771 154.338 106.687C153.921 106.604 153.483 106.604 153.025 106.687C152.483 106.812 151.983 107.042 151.525 107.375C151.067 107.708 150.629 108.083 150.213 108.5C149.796 108.917 149.4 109.354 149.025 109.812C148.65 110.271 148.275 110.646 147.9 110.937C147.442 111.854 147.025 112.687 146.65 113.437C146.275 114.146 145.858 114.979 145.4 115.937C145.192 116.437 144.963 116.896 144.713 117.312C144.463 117.729 144.233 118.146 144.025 118.562C143.733 119.271 143.504 120.104 143.338 121.062C143.213 121.979 142.983 122.729 142.65 123.312C142.525 123.521 142.358 123.667 142.15 123.75C141.983 123.833 141.858 123.958 141.775 124.125C141.692 124.25 141.671 124.417 141.713 124.625C141.754 124.792 141.817 124.979 141.9 125.187C141.983 125.354 142.046 125.562 142.088 125.812C142.129 126.021 142.129 126.208 142.088 126.375C141.754 127.708 141.588 129.042 141.588 130.375C141.588 131.667 141.671 132.854 141.838 133.937C141.921 134.396 141.983 134.896 142.025 135.437C142.067 135.937 142.15 136.375 142.275 136.75C142.608 137.833 142.963 138.771 143.338 139.562C143.713 140.354 144.358 140.937 145.275 141.312C145.358 141.396 145.379 141.521 145.338 141.687C145.296 141.812 145.296 141.917 145.338 142L146.838 142.187C147.213 141.729 147.692 141.333 148.275 141C148.858 140.667 149.379 140.25 149.838 139.75C150.129 139.417 150.546 138.979 151.088 138.437C151.671 137.854 152.108 137.292 152.4 136.75L153.338 135.25C153.504 134.917 153.671 134.625 153.838 134.375C154.046 134.083 154.213 133.833 154.338 133.625C154.838 132.583 155.213 131.562 155.463 130.562C155.754 129.521 156.025 128.458 156.275 127.375C156.442 126.667 156.65 125.958 156.9 125.25C157.15 124.542 157.192 123.854 157.025 123.187C157.192 122.854 157.442 122.562 157.775 122.312C158.108 122.062 158.317 121.729 158.4 121.312Z" fill="#AB9C79"/>
<path d="M179.363 140.562C180.029 140.687 180.654 141.125 181.238 141.875C181.863 142.625 182.071 143.479 181.863 144.437C181.613 145.604 181.008 146.542 180.05 147.25C179.133 148 178.092 148.5 176.925 148.75C176.3 148.833 175.717 148.687 175.175 148.312C174.633 147.937 174.217 147.458 173.925 146.875C173.633 146.25 173.488 145.583 173.488 144.875C173.488 144.167 173.696 143.5 174.113 142.875C174.321 142.583 174.613 142.354 174.988 142.187C175.321 142.021 175.654 141.812 175.988 141.562C176.238 141.354 176.529 141.125 176.863 140.875C177.196 140.583 177.571 140.417 177.988 140.375C178.196 140.375 178.425 140.396 178.675 140.437C178.925 140.479 179.154 140.521 179.363 140.562Z" fill="#AB9C79"/>
<path d="M226.825 143.437C224.95 145.229 222.679 146.604 220.012 147.562C217.346 148.521 214.221 148.833 210.637 148.5C209.512 148.333 208.492 147.937 207.575 147.312C206.7 146.729 205.908 146.146 205.2 145.562C204.992 145.396 204.804 145.271 204.637 145.187C204.471 145.062 204.325 144.937 204.2 144.812C204.033 144.604 203.887 144.396 203.762 144.187C203.679 143.937 203.533 143.708 203.325 143.5C202.992 143.125 202.637 142.812 202.262 142.562C201.887 142.312 201.596 142.042 201.387 141.75C201.137 141.417 200.992 141.042 200.95 140.625C200.908 140.208 200.7 139.833 200.325 139.5C200.283 138.583 200.179 137.708 200.012 136.875C199.846 136.042 199.658 135.208 199.45 134.375C199.242 133.542 199.054 132.708 198.887 131.875C198.721 131 198.637 130.083 198.637 129.125C198.637 128.625 198.721 128.104 198.887 127.562C199.054 126.979 199.096 126.437 199.012 125.937C198.971 125.562 198.846 125.229 198.637 124.937C198.429 124.646 198.325 124.271 198.325 123.812C198.367 123.104 198.617 122.396 199.075 121.687C199.575 120.937 199.929 120.229 200.137 119.562C200.262 119.021 200.262 118.5 200.137 118C200.054 117.458 200.096 116.917 200.262 116.375C200.346 116.083 200.533 115.771 200.825 115.437C201.117 115.104 201.367 114.771 201.575 114.437C202.158 113.437 202.762 112.458 203.387 111.5C204.012 110.5 204.679 109.625 205.387 108.875C205.929 108.292 206.45 107.75 206.95 107.25C207.45 106.75 208.054 106.271 208.762 105.812C209.429 105.312 210.075 104.812 210.7 104.312C211.325 103.812 211.971 103.333 212.637 102.875C213.304 102.375 214.012 101.937 214.762 101.562C215.512 101.187 216.325 100.875 217.2 100.625C218.533 100.208 219.825 99.9375 221.075 99.8125C222.325 99.6458 223.617 99.6667 224.95 99.875C225.533 99.9583 226.283 100.146 227.2 100.437C228.158 100.729 228.908 101 229.45 101.25C230.242 101.625 230.887 102.167 231.387 102.875C231.887 103.542 232.387 104.229 232.887 104.937C233.096 105.271 233.346 105.562 233.637 105.812C233.971 106.062 234.2 106.292 234.325 106.5C234.617 107.083 234.846 107.771 235.012 108.562C235.179 109.312 235.387 110.062 235.637 110.812C235.804 111.479 236.033 112.146 236.325 112.812C236.617 113.437 236.887 114.104 237.137 114.812C237.387 115.479 237.596 116.208 237.762 117C237.929 117.75 237.971 118.583 237.887 119.5C237.804 120.583 237.658 121.833 237.45 123.25C237.242 124.667 236.992 125.937 236.7 127.062C236.575 127.604 236.387 128.208 236.137 128.875C235.929 129.5 235.7 130 235.45 130.375C235.158 130.708 234.846 130.917 234.512 131C234.221 131.083 233.971 131.292 233.762 131.625C233.637 131.833 233.533 132.104 233.45 132.437C233.408 132.771 233.387 133.042 233.387 133.25C233.346 133.583 233.346 133.896 233.387 134.187C233.471 134.437 233.492 134.729 233.45 135.062C233.45 135.437 233.304 135.833 233.012 136.25C232.762 136.625 232.471 137 232.137 137.375C231.804 137.75 231.429 138.104 231.012 138.437C230.637 138.771 230.325 139.083 230.075 139.375C229.45 140.083 228.887 140.771 228.387 141.437C227.929 142.062 227.408 142.729 226.825 143.437ZM226.387 121.312C226.554 120.812 226.575 120.271 226.45 119.687C226.325 119.062 226.304 118.437 226.387 117.812C226.471 117.146 226.533 116.562 226.575 116.062C226.617 115.521 226.637 114.937 226.637 114.312C226.554 112.562 226.283 111.042 225.825 109.75C225.408 108.458 224.721 107.458 223.762 106.75C223.262 106.792 222.783 106.771 222.325 106.687C221.908 106.604 221.471 106.604 221.012 106.687C220.471 106.812 219.971 107.042 219.512 107.375C219.054 107.708 218.617 108.083 218.2 108.5C217.783 108.917 217.387 109.354 217.012 109.812C216.637 110.271 216.262 110.646 215.887 110.937C215.429 111.854 215.012 112.687 214.637 113.437C214.262 114.146 213.846 114.979 213.387 115.937C213.179 116.437 212.95 116.896 212.7 117.312C212.45 117.729 212.221 118.146 212.012 118.562C211.721 119.271 211.492 120.104 211.325 121.062C211.2 121.979 210.971 122.729 210.637 123.312C210.512 123.521 210.346 123.667 210.137 123.75C209.971 123.833 209.846 123.958 209.762 124.125C209.679 124.25 209.658 124.417 209.7 124.625C209.742 124.792 209.804 124.979 209.887 125.187C209.971 125.354 210.033 125.562 210.075 125.812C210.117 126.021 210.117 126.208 210.075 126.375C209.742 127.708 209.575 129.042 209.575 130.375C209.575 131.667 209.658 132.854 209.825 133.937C209.908 134.396 209.971 134.896 210.012 135.437C210.054 135.937 210.137 136.375 210.262 136.75C210.596 137.833 210.95 138.771 211.325 139.562C211.7 140.354 212.346 140.937 213.262 141.312C213.346 141.396 213.367 141.521 213.325 141.687C213.283 141.812 213.283 141.917 213.325 142L214.825 142.187C215.2 141.729 215.679 141.333 216.262 141C216.846 140.667 217.367 140.25 217.825 139.75C218.117 139.417 218.533 138.979 219.075 138.437C219.658 137.854 220.096 137.292 220.387 136.75L221.325 135.25C221.492 134.917 221.658 134.625 221.825 134.375C222.033 134.083 222.2 133.833 222.325 133.625C222.825 132.583 223.2 131.562 223.45 130.562C223.742 129.521 224.012 128.458 224.262 127.375C224.429 126.667 224.637 125.958 224.887 125.25C225.137 124.542 225.179 123.854 225.012 123.187C225.179 122.854 225.429 122.562 225.762 122.312C226.096 122.062 226.304 121.729 226.387 121.312Z" fill="#AB9C79"/>
<g filter="url(#filter0_f)">
<path d="M97.125 102.812C97.0417 103.437 96.9583 104.104 96.875 104.812C96.7917 105.521 96.7083 106.229 96.625 106.937C96.5833 107.646 96.5 108.354 96.375 109.062C96.2917 109.771 96.1875 110.396 96.0625 110.937C95.8542 111.812 95.4792 112.708 94.9375 113.625C94.4375 114.542 94.0208 115.458 93.6875 116.375C93.3542 117.75 92.9792 119.187 92.5625 120.687C92.1875 122.187 91.8125 123.687 91.4375 125.187C91.3125 125.646 91.1458 126.125 90.9375 126.625C90.7708 127.083 90.6458 127.542 90.5625 128C90.5208 128.458 90.5 128.917 90.5 129.375C90.5417 129.792 90.5208 130.229 90.4375 130.687C90.1042 132.062 89.7083 133.417 89.25 134.75C88.8333 136.083 88.5 137.417 88.25 138.75C88.0833 139.583 87.9375 140.458 87.8125 141.375C87.7292 142.25 87.8125 143.104 88.0625 143.937C88.1875 144.437 88.4375 144.833 88.8125 145.125C89.2292 145.375 89.5417 145.792 89.75 146.375C89.6667 146.583 89.5833 146.75 89.5 146.875C89.4167 146.958 89.3333 147.104 89.25 147.312C88.375 147.562 87.625 147.583 87 147.375C86.4167 147.208 85.7292 147.062 84.9375 146.937C84.4792 146.896 83.9583 146.896 83.375 146.937C82.7917 146.937 82.1875 146.937 81.5625 146.937C81.1042 146.979 80.5 147 79.75 147C79.0417 146.958 78.4792 146.979 78.0625 147.062C77.4375 147.146 76.7708 147.229 76.0625 147.312C75.3958 147.396 74.8125 147.479 74.3125 147.562C73.7708 147.687 73.1667 147.896 72.5 148.187C71.875 148.479 71.2708 148.687 70.6875 148.812C70.1042 148.979 69.6042 148.979 69.1875 148.812C68.7708 148.687 68.5 148.25 68.375 147.5C69.3333 146.792 70.4167 146.125 71.625 145.5C72.875 144.833 73.9375 144.021 74.8125 143.062C75.1042 142.646 75.4583 142.083 75.875 141.375C76.3333 140.625 76.6667 139.979 76.875 139.437C76.9583 139.104 76.9792 138.771 76.9375 138.437C76.9375 138.104 76.9792 137.771 77.0625 137.437C77.1458 136.979 77.2708 136.521 77.4375 136.062C77.6458 135.562 77.8125 135.042 77.9375 134.5C78.2292 133.125 78.5417 131.875 78.875 130.75C79.25 129.583 79.6875 128.396 80.1875 127.187C80.2708 126.937 80.375 126.708 80.5 126.5C80.625 126.25 80.7083 126.062 80.75 125.937C80.7917 125.646 80.75 125.375 80.625 125.125C80.5417 124.875 80.5 124.583 80.5 124.25C80.5417 123.375 80.7917 122.458 81.25 121.5C81.7083 120.542 82.0417 119.542 82.25 118.5C82.375 117.958 82.4375 117.437 82.4375 116.937C82.4792 116.437 82.5625 115.937 82.6875 115.437C82.8958 114.604 83.1042 113.854 83.3125 113.187C83.5625 112.479 83.7917 111.771 84 111.062C82.875 111.312 81.8333 111.812 80.875 112.562C79.9583 113.271 79.0208 113.937 78.0625 114.562C77.9375 114.687 77.8333 114.833 77.75 115C77.7083 115.125 77.625 115.25 77.5 115.375C77.25 115.542 76.9375 115.687 76.5625 115.812C76.1875 115.896 75.8125 115.958 75.4375 116C75.0625 116 74.7292 115.937 74.4375 115.812C74.1458 115.646 73.9583 115.396 73.875 115.062C73.75 114.562 73.8125 114.125 74.0625 113.75C74.3542 113.375 74.7083 113.062 75.125 112.812C75.5417 112.521 75.9792 112.25 76.4375 112C76.8958 111.75 77.25 111.5 77.5 111.25C78.625 108.875 80.375 107.062 82.75 105.812C82.875 105.312 83.1042 104.896 83.4375 104.562C83.7708 104.187 84.1458 103.854 84.5625 103.562C85.0208 103.271 85.4583 102.979 85.875 102.687C86.3333 102.396 86.7083 102.083 87 101.75C87.3333 101.417 87.6042 101.021 87.8125 100.562C88.0208 100.104 88.2917 99.7708 88.625 99.5625C89.2083 99.2292 89.8542 99.125 90.5625 99.25C91.2708 99.3333 91.8958 99.5417 92.4375 99.875C92.5208 100.125 92.5833 100.375 92.625 100.625C92.7083 100.875 92.8542 101.083 93.0625 101.25C93.2708 101.375 93.5833 101.437 94 101.437C94.4167 101.396 94.7292 101.417 94.9375 101.5C95.3958 101.667 95.7917 101.896 96.125 102.187C96.4583 102.437 96.7917 102.646 97.125 102.812Z" fill="#AB9C79"/>
</g>
</g>
<defs>
<filter id="filter0_f" x="43.375" y="74.1989" width="78.75" height="99.7386" filterUnits="userSpaceOnUse" color-interpolation-filters="sRGB">
<feFlood flood-opacity="0" result="BackgroundImageFix"/>
<feBlend mode="normal" in="SourceGraphic" in2="BackgroundImageFix" result="shape"/>
<feGaussianBlur stdDeviation="12.5" result="effect1_foregroundBlur"/>
</filter>
<clipPath id="clip0">
<rect width="295" height="259" fill="white"/>
</clipPath>
</defs>
</svg>
