<svg width="295" height="259" viewBox="0 0 295 259" fill="none" xmlns="http://www.w3.org/2000/svg">
<g clip-path="url(#clip0)">
<path d="M221.121 167.65C229.829 155.425 222.587 140.66 222.587 140.66C222.587 140.66 211.377 146.863 204.865 156.579C196.968 168.365 173.734 167.782 145.847 142.724C145.847 142.724 92.1517 94.4754 81.2557 84.6847C70.3619 74.8959 49.3684 122.99 88.5356 161.112C91.5522 164.048 94.6065 166.636 97.6805 168.945C98.1608 178.802 100.596 191.707 107.967 206.089C110.949 211.329 136.978 194.211 127.501 157.581L128.803 157.608C133.743 167.84 135.398 176.948 135.135 184.655C158.08 187.996 177.625 181.245 184.977 179.984C197.099 177.904 203.456 181.918 212.725 188.408C224.612 196.729 235.43 192.3 235.43 192.3C235.43 192.3 230.532 174.926 221.121 167.65Z" fill="#65A9AE"/>
<path d="M275.883 185.644C279.465 198.698 280.062 210.986 278.342 220.209C276.552 229.804 272.688 234.376 268.954 235.401C265.22 236.426 259.564 234.466 253.127 227.128C246.941 220.076 241.182 209.203 237.6 196.15C234.018 183.096 233.421 170.808 235.141 161.585C236.931 151.99 240.795 147.418 244.529 146.393C248.262 145.369 253.919 147.328 260.356 154.666C266.542 161.719 272.3 172.591 275.883 185.644Z" stroke="#65A9AE" stroke-width="10"/>
<path d="M174.439 182.531C166.228 201.36 154.54 216.283 142.525 225.271C130.376 234.359 118.85 236.775 110.132 232.973C101.414 229.172 95.3419 219.081 93.7346 203.995C92.145 189.074 95.1274 170.355 103.338 151.526C111.549 132.697 123.237 117.774 135.252 108.787C147.401 99.6988 158.926 97.2823 167.645 101.084C176.363 104.886 182.435 114.976 184.042 130.063C185.632 144.983 182.649 163.702 174.439 182.531Z" stroke="#65A9AE" stroke-width="10"/>
<path d="M71.4027 69.9811C65.4896 83.5412 57.0972 94.2238 48.5527 100.615C39.8742 107.107 31.9943 108.572 26.2743 106.078C20.5542 103.583 16.2656 96.8123 15.1174 86.0354C13.987 75.4249 16.1045 62.006 22.0176 48.4459C27.9307 34.8858 36.3231 24.2031 44.8676 17.8115C53.5461 11.3196 61.426 9.85506 67.1461 12.3494C72.8661 14.8437 77.1548 21.6146 78.3029 32.3915C79.4334 43.0021 77.3158 56.421 71.4027 69.9811Z" stroke="#65A9AE" stroke-width="10"/>
<circle cx="250" cy="75" r="8" fill="#89CED3"/>
<circle cx="50" cy="175" r="8" fill="#89CED3"/>
<circle cx="110" cy="55" r="8" fill="#89CED3"/>
<circle cx="180" cy="45" r="8" fill="#89CED3"/>
<circle cx="202" cy="215" r="8" fill="#89CED3"/>
<circle cx="202" cy="81" r="8" fill="#89CED3"/>
</g>
<defs>
<clipPath id="clip0">
<rect width="295" height="259" fill="white"/>
</clipPath>
</defs>
</svg>
